<?xml version="1.0" encoding="utf-8"?>
<!-- Generator: Adobe Illustrator 16.0.0, SVG Export Plug-In . SVG Version: 6.00 Build 0)  -->
<!DOCTYPE svg PUBLIC "-//W3C//DTD SVG 1.1//EN" "http://www.w3.org/Graphics/SVG/1.1/DTD/svg11.dtd">
<svg version="1.1" xmlns="http://www.w3.org/2000/svg" xmlns:xlink="http://www.w3.org/1999/xlink" x="0px" y="0px" width="80px"
	 height="80px" viewBox="0 0 80 80" enable-background="new 0 0 80 80" xml:space="preserve">
<g id="Layer_2" display="none">
	<rect display="inline" fill="#0D0D26" width="80" height="81"/>
</g>
<g id="Layer_1">
	<g>
		<g>
			<path opacity="0.5" fill="#FCFCFC" d="M53.959,25.001c0,4.875-3.952,8.827-8.827,8.827H28.318c-4.875,0-8.827-3.952-8.827-8.827
				s3.952-8.827,8.827-8.827h16.813C50.007,16.174,53.959,20.126,53.959,25.001z"/>
			<path fill="#FCFCFC" d="M69.896,34.081c0,6.592-5.344,11.937-11.937,11.937H37.276c-6.591,0-11.936-5.345-11.936-11.937v-0.506
				c0-6.593,5.345-11.938,11.936-11.938H57.96c6.593,0,11.937,5.345,11.937,11.938V34.081z"/>
			<path fill="#FCFCFC" d="M44.571,37.191c0,4.875-3.952,8.826-8.827,8.826H18.931c-4.875,0-8.827-3.951-8.827-8.826
				s3.952-8.827,8.827-8.827h16.813C40.619,28.364,44.571,32.316,44.571,37.191z"/>
		</g>
		<g opacity="0.5">
			<path fill="#AC4939" d="M32,62c0,0.553-0.447,1-1,1l0,0c-0.553,0-1-0.447-1-1V50c0-0.553,0.447-1,1-1l0,0c0.553,0,1,0.447,1,1V62
				z"/>
			<path fill="#AC4939" d="M41,69c0,0.553-0.447,1-1,1l0,0c-0.553,0-1-0.447-1-1V57c0-0.553,0.447-1,1-1l0,0c0.553,0,1,0.447,1,1V69
				z"/>
			<path fill="#AC4939" d="M50,62c0,0.553-0.447,1-1,1l0,0c-0.553,0-1-0.447-1-1V50c0-0.553,0.447-1,1-1l0,0c0.553,0,1,0.447,1,1V62
				z"/>
		</g>
	</g>
</g>
</svg>
