<?xml version="1.0" encoding="utf-8"?>
<!-- Generator: Adobe Illustrator 16.0.0, SVG Export Plug-In . SVG Version: 6.00 Build 0)  -->
<!DOCTYPE svg PUBLIC "-//W3C//DTD SVG 1.1//EN" "http://www.w3.org/Graphics/SVG/1.1/DTD/svg11.dtd">
<svg version="1.1" xmlns="http://www.w3.org/2000/svg" xmlns:xlink="http://www.w3.org/1999/xlink" x="0px" y="0px" width="80px"
	 height="80px" viewBox="0 0 80 80" enable-background="new 0 0 80 80" xml:space="preserve">
<g id="Layer_2" display="none">
	<rect display="inline" fill="#0D0D26" width="80" height="81"/>
</g>
<g id="Layer_1">
	<g>
		<path fill="#FCFCFC" d="M75.563,50.197c0,7.842-6.356,14.199-14.198,14.199H36.761c-7.841,0-14.198-6.357-14.198-14.199v-0.602
			c0-7.842,6.357-14.199,14.198-14.199h24.604c7.842,0,14.198,6.357,14.198,14.199V50.197z"/>
		<path fill="#FCFCFC" d="M45.438,53.897c0,5.799-4.701,10.499-10.5,10.499h-20c-5.799,0-10.5-4.7-10.5-10.499s4.701-10.5,10.5-10.5
			h20C40.736,43.397,45.438,48.099,45.438,53.897z"/>
	</g>
</g>
</svg>
