<?xml version="1.0" encoding="utf-8"?>
<!-- Generator: Adobe Illustrator 16.0.0, SVG Export Plug-In . SVG Version: 6.00 Build 0)  -->
<!DOCTYPE svg PUBLIC "-//W3C//DTD SVG 1.1//EN" "http://www.w3.org/Graphics/SVG/1.1/DTD/svg11.dtd">
<svg version="1.1" xmlns="http://www.w3.org/2000/svg" xmlns:xlink="http://www.w3.org/1999/xlink" x="0px" y="0px" width="80px"
	 height="80px" viewBox="0 0 80 80" enable-background="new 0 0 80 80" xml:space="preserve">
<g id="Layer_2" display="none">
	<rect y="-0.333" display="inline" fill="#0D0D26" width="80" height="81"/>
</g>
<g id="Layer_1">
	<g>
		<path opacity="0.5" fill="#FCFCFC" d="M45.046,33.572c0,4.875-3.952,8.827-8.827,8.827H19.405c-4.875,0-8.827-3.952-8.827-8.827
			s3.952-8.827,8.827-8.827h16.813C41.094,24.745,45.046,28.697,45.046,33.572z"/>
		<path opacity="0.5" fill="#FCFCFC" d="M71.422,38.917c0,4.875-3.952,8.827-8.827,8.827H45.781c-4.875,0-8.827-3.952-8.827-8.827
			s3.952-8.827,8.827-8.827h16.813C67.47,30.09,71.422,34.042,71.422,38.917z"/>
		<path opacity="0.5" fill="#FCFCFC" d="M54.188,45.762c0,4.875-3.952,8.827-8.827,8.827H28.548c-4.875,0-8.827-3.952-8.827-8.827
			s3.952-8.827,8.827-8.827h16.813C50.236,36.935,54.188,40.887,54.188,45.762z"/>
	</g>
</g>
</svg>
